<svg width="17" height="20" viewBox="0 0 17 20" fill="none" xmlns="http://www.w3.org/2000/svg">
<path d="M13.6006 10.627C13.5756 8.094 15.6666 6.879 15.7596 6.819C14.5846 5.099 12.7546 4.864 12.1026 4.837C10.5456 4.679 9.06355 5.754 8.27255 5.754C7.48455 5.754 6.26455 4.86 4.97255 4.884C3.27655 4.909 1.71155 5.87 0.837552 7.39C-0.926448 10.45 0.385552 14.985 2.10455 17.467C2.94455 18.682 3.94655 20.047 5.26155 19.997C6.52755 19.947 7.00655 19.178 8.53755 19.178C10.0686 19.178 10.4996 19.998 11.8396 19.973C13.2026 19.947 14.0656 18.734 14.8996 17.516C15.8646 16.106 16.2616 14.741 16.2856 14.671C16.2556 14.658 13.6276 13.651 13.6016 10.626L13.6006 10.627ZM11.0826 3.194C11.7806 2.347 12.2516 1.172 12.1226 0C11.1176 0.04 9.89855 0.67 9.17755 1.515C8.53055 2.265 7.96355 3.46 8.11555 4.609C9.23755 4.697 10.3836 4.039 11.0826 3.194Z" fill="#0F62FE"/>
</svg>
