<svg width="20" height="20" viewBox="0 0 20 20" fill="none" xmlns="http://www.w3.org/2000/svg">
<path d="M4.37958 8.068C4.16683 8.68988 4.0587 9.34274 4.05958 10C4.05958 10.734 4.19158 11.437 4.43558 12.086C4.73969 12.8972 5.21738 13.6321 5.83522 14.2393C6.45306 14.8466 7.19613 15.3115 8.01244 15.6015C8.82874 15.8916 9.69857 15.9998 10.561 15.9185C11.4235 15.8372 12.2578 15.5684 13.0056 15.131H13.0066C14.1846 14.4404 15.0898 13.3661 15.5706 12.088H10.2236V8.132H19.8286C20.077 9.44049 20.062 10.7854 19.7846 12.088C19.3038 14.3399 18.0604 16.3568 16.2646 17.798C14.4908 19.2264 12.281 20.0035 10.0036 20C8.28655 20.001 6.59821 19.5597 5.10122 18.7187C3.60423 17.8778 2.34904 16.6655 1.45659 15.1986C0.564147 13.7317 0.0645172 12.0597 0.00584062 10.3437C-0.052836 8.62764 0.331419 6.92542 1.12158 5.401C1.96456 3.77291 3.23897 2.40796 4.80546 1.4554C6.37195 0.502843 8.17021 -0.000642863 10.0036 6.16024e-07C12.4296 6.16024e-07 14.6546 0.864001 16.3866 2.302L13.1466 4.954C12.3876 4.48164 11.5319 4.18643 10.6431 4.09034C9.75432 3.99424 8.8553 4.09972 8.01289 4.39894C7.17048 4.69816 6.40636 5.18342 5.77733 5.81864C5.14829 6.45386 4.67054 7.2227 4.37958 8.068Z" fill="#0F62FE"/>
</svg>
